<svg xmlns="http://www.w3.org/2000/svg" viewBox="0 0 1200 700" fill="none">
  <defs>
    <linearGradient id="bg" x1="0" y1="0" x2="1200" y2="700" gradientUnits="userSpaceOnUse">
      <stop stop-color="#0A1B38"/>
      <stop offset="1" stop-color="#102D55"/>
    </linearGradient>
    <linearGradient id="route" x1="150" y1="560" x2="1030" y2="120" gradientUnits="userSpaceOnUse">
      <stop stop-color="#FF6A00" stop-opacity="0"/>
      <stop offset=".45" stop-color="#FF6A00"/>
      <stop offset="1" stop-color="#FFB27D"/>
    </linearGradient>
    <radialGradient id="glow" cx="0" cy="0" r="1" gradientTransform="translate(900 250) rotate(135) scale(360 420)" gradientUnits="userSpaceOnUse">
      <stop stop-color="#FF6A00" stop-opacity=".25"/>
      <stop offset="1" stop-color="#FF6A00" stop-opacity="0"/>
    </radialGradient>
  </defs>
  <rect width="1200" height="700" rx="32" fill="url(#bg)"/>
  <rect width="1200" height="700" rx="32" fill="url(#glow)"/>
  <g opacity=".14" stroke="#B9CCE3" stroke-width="1">
    <path d="M0 120H1200M0 240H1200M0 360H1200M0 480H1200M0 600H1200"/>
    <path d="M120 0V700M240 0V700M360 0V700M480 0V700M600 0V700M720 0V700M840 0V700M960 0V700M1080 0V700"/>
  </g>
  <g opacity=".28" stroke="#7EA0C7" stroke-width="2">
    <path d="M190 430C330 250 500 250 640 360S900 470 1060 200"/>
    <path d="M120 540C290 420 410 470 560 550S860 600 1080 430"/>
    <circle cx="190" cy="430" r="7" fill="#7EA0C7"/>
    <circle cx="640" cy="360" r="7" fill="#7EA0C7"/>
    <circle cx="1060" cy="200" r="7" fill="#7EA0C7"/>
  </g>
  <path d="M125 575C300 515 390 410 535 435C690 462 745 570 895 485C960 448 1015 375 1085 290" stroke="url(#route)" stroke-width="7" stroke-linecap="round"/>
  <path d="M1080 276L1096 292L1075 296" stroke="#FF6A00" stroke-width="7" stroke-linecap="round" stroke-linejoin="round"/>
  <g transform="translate(710 120)">
    <circle cx="160" cy="160" r="145" fill="#0A1A35" fill-opacity=".72" stroke="#7EA0C7" stroke-opacity=".35" stroke-width="2"/>
    <ellipse cx="160" cy="160" rx="88" ry="145" stroke="#7EA0C7" stroke-opacity=".35" stroke-width="2"/>
    <ellipse cx="160" cy="160" rx="145" ry="55" stroke="#7EA0C7" stroke-opacity=".35" stroke-width="2"/>
    <path d="M18 160H302M44 105H276M44 215H276" stroke="#7EA0C7" stroke-opacity=".25" stroke-width="2"/>
    <path d="M160 18V302" stroke="#7EA0C7" stroke-opacity=".25" stroke-width="2"/>
    <circle cx="160" cy="160" r="8" fill="#FF6A00"/>
  </g>
  <g transform="translate(85 455)">
    <rect x="0" y="35" width="105" height="65" rx="6" fill="#12335D" stroke="#91A9C5" stroke-opacity=".35"/>
    <rect x="112" y="15" width="105" height="85" rx="6" fill="#173D6B" stroke="#91A9C5" stroke-opacity=".35"/>
    <rect x="224" y="42" width="105" height="58" rx="6" fill="#FF6A00" fill-opacity=".82"/>
    <path d="M15 54H90M127 35H202M239 61H314" stroke="#DDE8F5" stroke-opacity=".55" stroke-width="3"/>
    <circle cx="32" cy="108" r="13" fill="#07152F" stroke="#91A9C5" stroke-opacity=".5"/>
    <circle cx="198" cy="108" r="13" fill="#07152F" stroke="#91A9C5" stroke-opacity=".5"/>
    <circle cx="286" cy="108" r="13" fill="#07152F" stroke="#91A9C5" stroke-opacity=".5"/>
  </g>
  <g opacity=".75" fill="#FFB27D">
    <circle cx="520" cy="130" r="4"/><circle cx="600" cy="200" r="4"/><circle cx="1040" cy="540" r="4"/><circle cx="440" cy="580" r="4"/>
  </g>
</svg>
